<svg xmlns="http://www.w3.org/2000/svg" fill="none">

    <path fill="#6F3BC1" fill-rule="evenodd"
        d="M87.59 18.787h3.503l4.83-14.733h.141l4.839 14.733h3.503L98.019.253h-4.051zm22.484 0V.253h-3.282v18.534z"
        clip-rule="evenodd"></path>
    <path fill="currentColor"
        d="M78.532 24a6.3 6.3 0 0 1-1.211-.109 4.4 4.4 0 0 1-.876-.235l.743-2.552q.7.208 1.247.2a1.5 1.5 0 0 0 .964-.354q.425-.334.717-1.122l.274-.751-4.927-14.19h3.397l3.131 10.498h.142l3.14-10.498h3.405l-5.44 15.584q-.38 1.104-1.008 1.891-.628.796-1.54 1.213-.9.425-2.158.425M73.816.253v18.534h-3.202V.253zM68.247 8.561l-2.919.326a2.4 2.4 0 0 0-.433-.85 2.16 2.16 0 0 0-.814-.643q-.512-.245-1.256-.245-1 0-1.68.444-.673.442-.664 1.149-.008.606.433.986.451.38 1.486.625l2.318.507q1.927.425 2.866 1.348.947.922.955 2.416-.008 1.312-.752 2.317-.734.996-2.043 1.557t-3.008.56q-2.493 0-4.015-1.067-1.523-1.077-1.814-2.996l3.123-.307q.212.94.902 1.42t1.796.48q1.14 0 1.83-.48.7-.48.7-1.185 0-.597-.452-.986-.441-.39-1.38-.598l-2.317-.497q-1.954-.417-2.893-1.403-.937-.995-.928-2.516-.01-1.285.68-2.226.7-.95 1.938-1.466 1.247-.525 2.875-.525 2.388 0 3.76 1.04 1.38 1.042 1.706 2.815M48.199 18.787v-13.9h3.105v2.317h.141Q51.816 6 52.72 5.348q.91-.66 2.079-.66.265 0 .592.027.336.018.558.063v3.014a3.3 3.3 0 0 0-.646-.127 6 6 0 0 0-.84-.063 3.2 3.2 0 0 0-1.575.389q-.69.38-1.088 1.059t-.398 1.565v8.172zM42.27 12.941V4.887h3.203v13.9h-3.105v-2.47h-.142a4.16 4.16 0 0 1-1.512 1.91q-1.044.741-2.574.741-1.336 0-2.362-.606-1.017-.615-1.592-1.783-.576-1.176-.575-2.841V4.887h3.202v8.344q0 1.32.707 2.1.708.777 1.858.778.708 0 1.371-.353a2.8 2.8 0 0 0 1.088-1.05q.434-.705.434-1.765M24.949 19.059q-1.99 0-3.45-.896t-2.264-2.507q-.796-1.611-.796-3.765t.796-3.773q.804-1.62 2.264-2.516t3.45-.896 3.45.896 2.255 2.516q.805 1.62.805 3.773t-.805 3.765q-.795 1.611-2.255 2.507t-3.45.896m.018-2.625q1.078 0 1.804-.606.725-.616 1.08-1.647.362-1.032.362-2.299 0-1.276-.363-2.307-.354-1.04-1.079-1.657-.725-.615-1.804-.615-1.106 0-1.84.615-.725.615-1.088 1.657-.354 1.031-.354 2.307 0 1.267.354 2.299.362 1.032 1.088 1.647.734.606 1.84.606M16.725 6.507h-3.308a4.3 4.3 0 0 0-.522-1.475 4 4 0 0 0-.947-1.104 3.9 3.9 0 0 0-1.291-.68 5 5 0 0 0-1.548-.234q-1.477 0-2.619.76-1.14.75-1.786 2.208-.645 1.448-.646 3.538 0 2.127.646 3.584.655 1.447 1.786 2.19 1.142.733 2.61.733.814 0 1.521-.217.717-.226 1.283-.66.575-.435.964-1.069.398-.633.549-1.447l3.308.018a7.4 7.4 0 0 1-.805 2.48 7.3 7.3 0 0 1-1.601 2.045A7.4 7.4 0 0 1 12 18.552q-1.326.489-2.945.489-2.39 0-4.264-1.131-1.875-1.133-2.954-3.267Q.758 12.506.758 9.52q0-2.995 1.088-5.122Q2.935 2.262 4.81 1.131T9.056 0q1.512 0 2.813.434 1.3.435 2.317 1.276a6.8 6.8 0 0 1 1.672 2.046q.663 1.204.867 2.75">
    </path>

</svg>